<svg width="276" height="105" viewBox="0 0 276 105" fill="none" xmlns="http://www.w3.org/2000/svg">
<mask id="path-1-outside-1_6_53" maskUnits="userSpaceOnUse" x="0" y="0" width="81" height="41" fill="black">
<rect fill="white" width="81" height="41"/>
<path d="M4.5 7H9.5V32H19.5V29.5H24.5V32H22V34.5H7V32H4.5V7ZM29.5 4.5H34.5V19.5H42V22H34.5V37H29.5V4.5ZM44.5 12H47V9.5H49.5V7H59.5V9.5H62V12H64.5V19.5H62V22H59.5V24.5H49.5V22H47V19.5H44.5V12ZM49.5 12V19.5H52V22H57V19.5H59.5V12H57V9.5H52V12H49.5ZM44.5 32H72V4.5H77V37H72V34.5H44.5V32Z"/>
</mask>
<path d="M4.5 7H9.5V32H19.5V29.5H24.5V32H22V34.5H7V32H4.5V7ZM29.5 4.5H34.5V19.5H42V22H34.5V37H29.5V4.5ZM44.5 12H47V9.5H49.5V7H59.5V9.5H62V12H64.5V19.5H62V22H59.5V24.5H49.5V22H47V19.5H44.5V12ZM49.5 12V19.5H52V22H57V19.5H59.5V12H57V9.5H52V12H49.5ZM44.5 32H72V4.5H77V37H72V34.5H44.5V32Z" fill="black"/>
<path d="M4.5 7V3H0.5V7H4.5ZM9.5 7H13.5V3H9.5V7ZM9.5 32H5.5V36H9.5V32ZM19.5 32V36H23.5V32H19.5ZM19.5 29.5V25.5H15.5V29.5H19.5ZM24.5 29.5H28.5V25.5H24.5V29.5ZM24.5 32V36H28.5V32H24.5ZM22 32V28H18V32H22ZM22 34.5V38.5H26V34.5H22ZM7 34.5H3V38.5H7V34.5ZM7 32H11V28H7V32ZM4.5 32H0.5V36H4.5V32ZM29.5 4.5V0.5H25.5V4.5H29.5ZM34.5 4.5H38.5V0.5H34.5V4.5ZM34.5 19.5H30.5V23.5H34.5V19.5ZM42 19.5H46V15.5H42V19.5ZM42 22V26H46V22H42ZM34.5 22V18H30.5V22H34.5ZM34.5 37V41H38.5V37H34.5ZM29.5 37H25.5V41H29.5V37ZM4.5 7V11H9.5V7V3H4.5V7ZM9.5 7H5.5V32H9.5H13.5V7H9.5ZM9.5 32V36H19.5V32V28H9.5V32ZM19.5 32H23.5V29.5H19.5H15.5V32H19.5ZM19.5 29.5V33.5H24.5V29.5V25.5H19.5V29.5ZM24.5 29.5H20.5V32H24.5H28.5V29.5H24.5ZM24.5 32V28H22V32V36H24.5V32ZM22 32H18V34.5H22H26V32H22ZM22 34.5V30.5H7V34.5V38.5H22V34.5ZM7 34.5H11V32H7H3V34.5H7ZM7 32V28H4.5V32V36H7V32ZM4.5 32H8.5V7H4.5H0.5V32H4.5ZM29.5 4.5V8.5H34.5V4.5V0.5H29.5V4.5ZM34.5 4.5H30.5V19.5H34.5H38.5V4.5H34.5ZM34.5 19.5V23.5H42V19.5V15.5H34.5V19.5ZM42 19.5H38V22H42H46V19.5H42ZM42 22V18H34.5V22V26H42V22ZM34.5 22H30.5V37H34.5H38.5V22H34.5ZM34.5 37V33H29.5V37V41H34.5V37ZM29.5 37H33.5V4.5H29.5H25.5V37H29.5ZM44.5 12V8H40.5V12H44.5ZM47 12V16H51V12H47ZM47 9.5V5.5H43V9.5H47ZM49.5 9.5V13.5H53.5V9.5H49.5ZM49.5 7V3H45.5V7H49.5ZM59.5 7H63.5V3H59.5V7ZM59.5 9.5H55.5V13.5H59.5V9.5ZM62 9.5H66V5.5H62V9.5ZM62 12H58V16H62V12ZM64.5 12H68.5V8H64.5V12ZM64.5 19.5V23.5H68.5V19.5H64.5ZM62 19.5V15.5H58V19.5H62ZM62 22V26H66V22H62ZM59.5 22V18H55.5V22H59.5ZM59.5 24.5V28.5H63.5V24.5H59.5ZM49.5 24.5H45.5V28.5H49.5V24.5ZM49.5 22H53.5V18H49.5V22ZM47 22H43V26H47V22ZM47 19.5H51V15.5H47V19.5ZM44.5 19.5H40.5V23.5H44.5V19.5ZM49.5 12V8H45.5V12H49.5ZM49.5 19.5H45.5V23.5H49.5V19.5ZM52 19.5H56V15.5H52V19.5ZM52 22H48V26H52V22ZM57 22V26H61V22H57ZM57 19.5V15.5H53V19.5H57ZM59.5 19.5V23.5H63.5V19.5H59.5ZM59.5 12H63.5V8H59.5V12ZM57 12H53V16H57V12ZM57 9.5H61V5.5H57V9.5ZM52 9.5V5.5H48V9.5H52ZM52 12V16H56V12H52ZM44.5 32V28H40.5V32H44.5ZM72 32V36H76V32H72ZM72 4.5V0.5H68V4.5H72ZM77 4.5H81V0.5H77V4.5ZM77 37V41H81V37H77ZM72 37H68V41H72V37ZM72 34.5H76V30.5H72V34.5ZM44.5 34.5H40.5V38.5H44.5V34.5ZM44.5 12V16H47V12V8H44.5V12ZM47 12H51V9.5H47H43V12H47ZM47 9.5V13.5H49.5V9.5V5.5H47V9.5ZM49.5 9.5H53.5V7H49.5H45.5V9.5H49.5ZM49.5 7V11H59.5V7V3H49.5V7ZM59.5 7H55.5V9.5H59.5H63.5V7H59.5ZM59.5 9.5V13.5H62V9.5V5.5H59.5V9.5ZM62 9.5H58V12H62H66V9.5H62ZM62 12V16H64.5V12V8H62V12ZM64.5 12H60.5V19.5H64.5H68.5V12H64.5ZM64.5 19.5V15.5H62V19.5V23.5H64.5V19.5ZM62 19.5H58V22H62H66V19.5H62ZM62 22V18H59.5V22V26H62V22ZM59.5 22H55.5V24.5H59.5H63.5V22H59.5ZM59.5 24.5V20.5H49.5V24.5V28.5H59.5V24.5ZM49.5 24.5H53.5V22H49.5H45.5V24.5H49.5ZM49.5 22V18H47V22V26H49.5V22ZM47 22H51V19.5H47H43V22H47ZM47 19.5V15.5H44.5V19.5V23.5H47V19.5ZM44.5 19.5H48.5V12H44.5H40.5V19.5H44.5ZM49.5 12H45.5V19.5H49.5H53.5V12H49.5ZM49.5 19.5V23.5H52V19.5V15.5H49.5V19.5ZM52 19.5H48V22H52H56V19.5H52ZM52 22V26H57V22V18H52V22ZM57 22H61V19.5H57H53V22H57ZM57 19.5V23.5H59.5V19.5V15.5H57V19.5ZM59.5 19.5H63.5V12H59.5H55.5V19.5H59.5ZM59.5 12V8H57V12V16H59.5V12ZM57 12H61V9.5H57H53V12H57ZM57 9.5V5.5H52V9.5V13.5H57V9.5ZM52 9.5H48V12H52H56V9.5H52ZM52 12V8H49.5V12V16H52V12ZM44.5 32V36H72V32V28H44.5V32ZM72 32H76V4.5H72H68V32H72ZM72 4.5V8.5H77V4.5V0.5H72V4.5ZM77 4.5H73V37H77H81V4.5H77ZM77 37V33H72V37V41H77V37ZM72 37H76V34.5H72H68V37H72ZM72 34.5V30.5H44.5V34.5V38.5H72V34.5ZM44.5 34.5H48.5V32H44.5H40.5V34.5H44.5Z" fill="white" mask="url(#path-1-outside-1_6_53)"/>
<mask id="path-3-outside-2_6_53" maskUnits="userSpaceOnUse" x="0" y="63" width="276" height="41" fill="black">
<rect fill="white" y="63" width="276" height="41"/>
<path d="M7 70H12V85H37V87.5H9.5V85H7V70ZM4.5 95H39.5V97.5H4.5V95ZM47 67.5H77V70H64.5V72.5H67V75H69.5V77.5H77V80H67V77.5H64.5V75H59.5V77.5H57V80H47V77.5H54.5V75H57V72.5H59.5V70H47V67.5ZM44.5 82.5H59.5V77.5H64.5V82.5H79.5V85H44.5V82.5ZM47 90H59.5V87.5H64.5V90H77V92.5H74.5V95H77V97.5H74.5V100H49.5V97.5H47V95H49.5V92.5H47V90ZM52 95V97.5H72V95H52Z"/>
<path d="M99.5 67.5H129.5V70H104.5V77.5H129.5V80H102V77.5H99.5V67.5ZM97 82.5H112V77.5H117V82.5H132V85H97V82.5ZM99.5 90H104.5V87.5H124.5V90H129.5V97.5H124.5V100H104.5V97.5H99.5V90ZM104.5 92.5V95H107V97.5H122V95H124.5V92.5H122V90H107V92.5H104.5ZM137 75H139.5V72.5H142V70H152V72.5H154.5V75H157V92.5H154.5V95H152V97.5H142V95H139.5V92.5H137V75ZM142 75V92.5H144.5V95H149.5V92.5H152V75H149.5V72.5H144.5V75H142ZM162 67.5H167V82.5H174.5V85H167V100H162V67.5ZM177 70H194.5V82.5H182V95H189.5V92.5H194.5V95H192V97.5H179.5V95H177V80H189.5V72.5H177V70ZM204.5 67.5H209.5V100H204.5V67.5ZM219.5 67.5H224.5V77.5H249.5V80H222V77.5H219.5V67.5ZM217 82.5H252V85H217V82.5ZM219.5 87.5H224.5V97.5H249.5V100H222V97.5H219.5V87.5ZM254.5 72.5H257V70H269.5V72.5H272V77.5H269.5V80H267V87.5H262V80H264.5V77.5H267V72.5H259.5V77.5H254.5V72.5ZM262 90H267V95H262V90Z"/>
</mask>
<path d="M7 70H12V85H37V87.5H9.5V85H7V70ZM4.5 95H39.5V97.5H4.5V95ZM47 67.5H77V70H64.5V72.5H67V75H69.5V77.5H77V80H67V77.5H64.5V75H59.5V77.5H57V80H47V77.5H54.5V75H57V72.5H59.5V70H47V67.5ZM44.5 82.5H59.5V77.5H64.5V82.5H79.5V85H44.5V82.5ZM47 90H59.5V87.5H64.5V90H77V92.5H74.5V95H77V97.5H74.5V100H49.5V97.5H47V95H49.5V92.5H47V90ZM52 95V97.5H72V95H52Z" fill="#FF7710"/>
<path d="M99.5 67.5H129.5V70H104.5V77.5H129.5V80H102V77.5H99.5V67.5ZM97 82.5H112V77.5H117V82.5H132V85H97V82.5ZM99.5 90H104.5V87.5H124.5V90H129.5V97.5H124.5V100H104.5V97.5H99.5V90ZM104.5 92.5V95H107V97.5H122V95H124.5V92.5H122V90H107V92.5H104.5ZM137 75H139.5V72.5H142V70H152V72.5H154.5V75H157V92.5H154.5V95H152V97.5H142V95H139.5V92.5H137V75ZM142 75V92.5H144.5V95H149.5V92.5H152V75H149.5V72.5H144.5V75H142ZM162 67.5H167V82.5H174.5V85H167V100H162V67.5ZM177 70H194.5V82.5H182V95H189.5V92.5H194.5V95H192V97.5H179.5V95H177V80H189.5V72.5H177V70ZM204.5 67.5H209.5V100H204.5V67.5ZM219.5 67.5H224.5V77.5H249.5V80H222V77.5H219.5V67.5ZM217 82.5H252V85H217V82.5ZM219.5 87.5H224.5V97.5H249.5V100H222V97.5H219.5V87.5ZM254.5 72.5H257V70H269.5V72.5H272V77.5H269.5V80H267V87.5H262V80H264.5V77.5H267V72.5H259.5V77.5H254.5V72.5ZM262 90H267V95H262V90Z" fill="black"/>
<path d="M7 70V66H3V70H7ZM12 70H16V66H12V70ZM12 85H8V89H12V85ZM37 85H41V81H37V85ZM37 87.5V91.5H41V87.5H37ZM9.5 87.5H5.5V91.5H9.5V87.5ZM9.5 85H13.5V81H9.5V85ZM7 85H3V89H7V85ZM4.5 95V91H0.5V95H4.5ZM39.5 95H43.5V91H39.5V95ZM39.5 97.5V101.5H43.5V97.5H39.5ZM4.5 97.5H0.5V101.5H4.5V97.5ZM7 70V74H12V70V66H7V70ZM12 70H8V85H12H16V70H12ZM12 85V89H37V85V81H12V85ZM37 85H33V87.5H37H41V85H37ZM37 87.5V83.5H9.5V87.5V91.5H37V87.5ZM9.5 87.5H13.5V85H9.5H5.5V87.5H9.5ZM9.5 85V81H7V85V89H9.5V85ZM7 85H11V70H7H3V85H7ZM4.5 95V99H39.5V95V91H4.5V95ZM39.5 95H35.5V97.5H39.5H43.5V95H39.5ZM39.5 97.5V93.5H4.5V97.5V101.5H39.5V97.5ZM4.5 97.5H8.5V95H4.5H0.5V97.5H4.5ZM47 67.5V63.5H43V67.5H47ZM77 67.5H81V63.5H77V67.5ZM77 70V74H81V70H77ZM64.5 70V66H60.5V70H64.5ZM64.5 72.5H60.5V76.5H64.5V72.5ZM67 72.5H71V68.5H67V72.5ZM67 75H63V79H67V75ZM69.5 75H73.5V71H69.5V75ZM69.5 77.5H65.5V81.5H69.5V77.5ZM77 77.5H81V73.5H77V77.5ZM77 80V84H81V80H77ZM67 80H63V84H67V80ZM67 77.5H71V73.5H67V77.5ZM64.5 77.5H60.5V81.5H64.5V77.5ZM64.5 75H68.5V71H64.5V75ZM59.5 75V71H55.5V75H59.5ZM59.5 77.5V81.5H63.5V77.5H59.5ZM57 77.5V73.5H53V77.5H57ZM57 80V84H61V80H57ZM47 80H43V84H47V80ZM47 77.5V73.5H43V77.5H47ZM54.5 77.5V81.5H58.5V77.5H54.5ZM54.5 75V71H50.5V75H54.5ZM57 75V79H61V75H57ZM57 72.5V68.5H53V72.5H57ZM59.5 72.5V76.5H63.5V72.5H59.5ZM59.5 70H63.5V66H59.5V70ZM47 70H43V74H47V70ZM44.5 82.5V78.5H40.5V82.5H44.5ZM59.5 82.5V86.5H63.5V82.5H59.5ZM59.5 77.5V73.5H55.5V77.5H59.5ZM64.5 77.5H68.5V73.5H64.5V77.5ZM64.5 82.5H60.5V86.5H64.5V82.5ZM79.5 82.5H83.5V78.5H79.5V82.5ZM79.5 85V89H83.5V85H79.5ZM44.5 85H40.5V89H44.5V85ZM47 90V86H43V90H47ZM59.5 90V94H63.5V90H59.5ZM59.5 87.5V83.5H55.5V87.5H59.5ZM64.5 87.5H68.5V83.5H64.5V87.5ZM64.5 90H60.5V94H64.5V90ZM77 90H81V86H77V90ZM77 92.5V96.5H81V92.5H77ZM74.5 92.5V88.5H70.5V92.5H74.5ZM74.5 95H70.5V99H74.5V95ZM77 95H81V91H77V95ZM77 97.5V101.5H81V97.5H77ZM74.5 97.5V93.5H70.5V97.5H74.5ZM74.5 100V104H78.5V100H74.5ZM49.5 100H45.5V104H49.5V100ZM49.5 97.5H53.5V93.5H49.5V97.5ZM47 97.5H43V101.5H47V97.5ZM47 95V91H43V95H47ZM49.5 95V99H53.5V95H49.5ZM49.5 92.5H53.5V88.5H49.5V92.5ZM47 92.5H43V96.5H47V92.5ZM52 95V91H48V95H52ZM52 97.5H48V101.5H52V97.5ZM72 97.5V101.5H76V97.5H72ZM72 95H76V91H72V95ZM47 67.5V71.5H77V67.5V63.5H47V67.5ZM77 67.5H73V70H77H81V67.5H77ZM77 70V66H64.5V70V74H77V70ZM64.5 70H60.5V72.5H64.5H68.5V70H64.5ZM64.5 72.5V76.5H67V72.5V68.5H64.5V72.5ZM67 72.5H63V75H67H71V72.5H67ZM67 75V79H69.5V75V71H67V75ZM69.5 75H65.5V77.5H69.5H73.5V75H69.5ZM69.5 77.5V81.5H77V77.5V73.5H69.5V77.5ZM77 77.5H73V80H77H81V77.5H77ZM77 80V76H67V80V84H77V80ZM67 80H71V77.5H67H63V80H67ZM67 77.5V73.5H64.5V77.5V81.5H67V77.5ZM64.5 77.5H68.5V75H64.5H60.5V77.5H64.5ZM64.5 75V71H59.5V75V79H64.5V75ZM59.5 75H55.5V77.5H59.5H63.5V75H59.5ZM59.5 77.5V73.5H57V77.5V81.5H59.5V77.5ZM57 77.5H53V80H57H61V77.5H57ZM57 80V76H47V80V84H57V80ZM47 80H51V77.5H47H43V80H47ZM47 77.5V81.5H54.5V77.5V73.5H47V77.5ZM54.5 77.5H58.5V75H54.5H50.5V77.5H54.5ZM54.5 75V79H57V75V71H54.5V75ZM57 75H61V72.5H57H53V75H57ZM57 72.5V76.5H59.5V72.5V68.5H57V72.5ZM59.5 72.5H63.5V70H59.5H55.5V72.5H59.5ZM59.5 70V66H47V70V74H59.5V70ZM47 70H51V67.5H47H43V70H47ZM44.5 82.5V86.5H59.5V82.5V78.5H44.5V82.5ZM59.5 82.5H63.5V77.5H59.5H55.5V82.5H59.5ZM59.5 77.5V81.5H64.5V77.5V73.5H59.5V77.5ZM64.5 77.5H60.5V82.5H64.5H68.5V77.5H64.5ZM64.5 82.5V86.5H79.5V82.5V78.5H64.5V82.5ZM79.5 82.5H75.5V85H79.5H83.5V82.5H79.5ZM79.5 85V81H44.5V85V89H79.5V85ZM44.5 85H48.5V82.5H44.5H40.5V85H44.5ZM47 90V94H59.5V90V86H47V90ZM59.5 90H63.5V87.5H59.5H55.5V90H59.5ZM59.5 87.5V91.5H64.5V87.5V83.5H59.5V87.5ZM64.5 87.5H60.5V90H64.5H68.5V87.5H64.5ZM64.5 90V94H77V90V86H64.5V90ZM77 90H73V92.5H77H81V90H77ZM77 92.5V88.5H74.5V92.5V96.5H77V92.5ZM74.5 92.5H70.5V95H74.5H78.5V92.5H74.5ZM74.5 95V99H77V95V91H74.5V95ZM77 95H73V97.5H77H81V95H77ZM77 97.5V93.5H74.5V97.5V101.5H77V97.5ZM74.5 97.5H70.5V100H74.5H78.5V97.5H74.5ZM74.5 100V96H49.5V100V104H74.5V100ZM49.5 100H53.5V97.5H49.5H45.5V100H49.5ZM49.5 97.5V93.5H47V97.5V101.5H49.5V97.5ZM47 97.5H51V95H47H43V97.5H47ZM47 95V99H49.5V95V91H47V95ZM49.5 95H53.5V92.5H49.5H45.5V95H49.5ZM49.5 92.5V88.5H47V92.5V96.5H49.5V92.5ZM47 92.5H51V90H47H43V92.5H47ZM52 95H48V97.5H52H56V95H52ZM52 97.5V101.5H72V97.5V93.5H52V97.5ZM72 97.5H76V95H72H68V97.5H72ZM72 95V91H52V95V99H72V95ZM99.5 67.5V63.5H95.5V67.5H99.5ZM129.5 67.5H133.5V63.5H129.5V67.5ZM129.5 70V74H133.5V70H129.5ZM104.5 70V66H100.5V70H104.5ZM104.5 77.5H100.5V81.5H104.5V77.5ZM129.5 77.5H133.5V73.5H129.5V77.5ZM129.5 80V84H133.5V80H129.5ZM102 80H98V84H102V80ZM102 77.5H106V73.5H102V77.5ZM99.5 77.5H95.5V81.5H99.5V77.5ZM97 82.5V78.5H93V82.5H97ZM112 82.5V86.5H116V82.5H112ZM112 77.5V73.5H108V77.5H112ZM117 77.5H121V73.5H117V77.5ZM117 82.5H113V86.5H117V82.5ZM132 82.5H136V78.5H132V82.5ZM132 85V89H136V85H132ZM97 85H93V89H97V85ZM99.5 90V86H95.5V90H99.5ZM104.5 90V94H108.5V90H104.5ZM104.5 87.5V83.5H100.5V87.5H104.5ZM124.5 87.5H128.5V83.5H124.5V87.5ZM124.5 90H120.5V94H124.5V90ZM129.5 90H133.5V86H129.5V90ZM129.5 97.5V101.5H133.5V97.5H129.5ZM124.5 97.5V93.5H120.5V97.5H124.5ZM124.5 100V104H128.5V100H124.5ZM104.5 100H100.5V104H104.5V100ZM104.5 97.5H108.5V93.5H104.5V97.5ZM99.5 97.5H95.5V101.5H99.5V97.5ZM104.5 92.5V88.5H100.5V92.5H104.5ZM104.5 95H100.5V99H104.5V95ZM107 95H111V91H107V95ZM107 97.5H103V101.5H107V97.5ZM122 97.5V101.5H126V97.5H122ZM122 95V91H118V95H122ZM124.5 95V99H128.5V95H124.5ZM124.5 92.5H128.5V88.5H124.5V92.5ZM122 92.5H118V96.5H122V92.5ZM122 90H126V86H122V90ZM107 90V86H103V90H107ZM107 92.5V96.5H111V92.5H107ZM99.5 67.5V71.5H129.5V67.5V63.5H99.5V67.5ZM129.5 67.5H125.5V70H129.5H133.5V67.5H129.5ZM129.5 70V66H104.5V70V74H129.5V70ZM104.5 70H100.5V77.5H104.5H108.5V70H104.5ZM104.5 77.5V81.5H129.5V77.5V73.5H104.5V77.5ZM129.5 77.5H125.5V80H129.5H133.5V77.5H129.5ZM129.5 80V76H102V80V84H129.5V80ZM102 80H106V77.5H102H98V80H102ZM102 77.5V73.5H99.5V77.5V81.5H102V77.5ZM99.5 77.5H103.5V67.5H99.5H95.5V77.5H99.5ZM97 82.5V86.5H112V82.5V78.5H97V82.5ZM112 82.5H116V77.5H112H108V82.5H112ZM112 77.5V81.5H117V77.5V73.5H112V77.5ZM117 77.5H113V82.5H117H121V77.5H117ZM117 82.5V86.5H132V82.5V78.5H117V82.5ZM132 82.5H128V85H132H136V82.5H132ZM132 85V81H97V85V89H132V85ZM97 85H101V82.5H97H93V85H97ZM99.5 90V94H104.5V90V86H99.5V90ZM104.5 90H108.5V87.5H104.5H100.5V90H104.5ZM104.5 87.5V91.5H124.5V87.5V83.5H104.5V87.5ZM124.5 87.5H120.5V90H124.5H128.5V87.5H124.5ZM124.5 90V94H129.5V90V86H124.5V90ZM129.5 90H125.5V97.5H129.5H133.5V90H129.5ZM129.5 97.5V93.5H124.5V97.5V101.5H129.5V97.5ZM124.5 97.5H120.5V100H124.5H128.5V97.5H124.5ZM124.5 100V96H104.5V100V104H124.5V100ZM104.5 100H108.5V97.5H104.5H100.5V100H104.5ZM104.5 97.5V93.5H99.5V97.5V101.5H104.5V97.5ZM99.5 97.5H103.5V90H99.5H95.5V97.5H99.5ZM104.5 92.5H100.5V95H104.5H108.5V92.5H104.5ZM104.5 95V99H107V95V91H104.5V95ZM107 95H103V97.5H107H111V95H107ZM107 97.5V101.5H122V97.5V93.5H107V97.5ZM122 97.5H126V95H122H118V97.5H122ZM122 95V99H124.5V95V91H122V95ZM124.5 95H128.5V92.5H124.5H120.5V95H124.5ZM124.5 92.5V88.5H122V92.5V96.5H124.5V92.5ZM122 92.5H126V90H122H118V92.5H122ZM122 90V86H107V90V94H122V90ZM107 90H103V92.5H107H111V90H107ZM107 92.5V88.5H104.5V92.5V96.5H107V92.5ZM137 75V71H133V75H137ZM139.5 75V79H143.5V75H139.5ZM139.5 72.5V68.5H135.5V72.5H139.5ZM142 72.5V76.5H146V72.5H142ZM142 70V66H138V70H142ZM152 70H156V66H152V70ZM152 72.5H148V76.5H152V72.5ZM154.5 72.5H158.5V68.5H154.5V72.5ZM154.5 75H150.5V79H154.5V75ZM157 75H161V71H157V75ZM157 92.5V96.5H161V92.5H157ZM154.5 92.5V88.5H150.5V92.5H154.5ZM154.5 95V99H158.5V95H154.5ZM152 95V91H148V95H152ZM152 97.5V101.5H156V97.5H152ZM142 97.5H138V101.5H142V97.5ZM142 95H146V91H142V95ZM139.5 95H135.5V99H139.5V95ZM139.5 92.5H143.5V88.5H139.5V92.5ZM137 92.5H133V96.5H137V92.5ZM142 75V71H138V75H142ZM142 92.5H138V96.5H142V92.5ZM144.5 92.5H148.5V88.5H144.5V92.5ZM144.5 95H140.5V99H144.5V95ZM149.5 95V99H153.5V95H149.5ZM149.5 92.5V88.5H145.5V92.5H149.5ZM152 92.5V96.5H156V92.5H152ZM152 75H156V71H152V75ZM149.5 75H145.5V79H149.5V75ZM149.5 72.5H153.5V68.5H149.5V72.5ZM144.5 72.5V68.5H140.5V72.5H144.5ZM144.5 75V79H148.5V75H144.5ZM162 67.5V63.5H158V67.5H162ZM167 67.5H171V63.5H167V67.5ZM167 82.5H163V86.5H167V82.5ZM174.5 82.5H178.5V78.5H174.5V82.5ZM174.5 85V89H178.5V85H174.5ZM167 85V81H163V85H167ZM167 100V104H171V100H167ZM162 100H158V104H162V100ZM137 75V79H139.5V75V71H137V75ZM139.5 75H143.5V72.5H139.5H135.5V75H139.5ZM139.5 72.5V76.5H142V72.5V68.5H139.5V72.5ZM142 72.5H146V70H142H138V72.5H142ZM142 70V74H152V70V66H142V70ZM152 70H148V72.5H152H156V70H152ZM152 72.5V76.5H154.5V72.5V68.5H152V72.5ZM154.5 72.5H150.5V75H154.5H158.5V72.5H154.5ZM154.5 75V79H157V75V71H154.5V75ZM157 75H153V92.5H157H161V75H157ZM157 92.5V88.5H154.5V92.5V96.5H157V92.5ZM154.5 92.5H150.5V95H154.5H158.5V92.5H154.5ZM154.5 95V91H152V95V99H154.5V95ZM152 95H148V97.5H152H156V95H152ZM152 97.5V93.5H142V97.5V101.5H152V97.5ZM142 97.5H146V95H142H138V97.5H142ZM142 95V91H139.5V95V99H142V95ZM139.5 95H143.5V92.5H139.5H135.5V95H139.5ZM139.5 92.5V88.5H137V92.5V96.5H139.5V92.5ZM137 92.5H141V75H137H133V92.5H137ZM142 75H138V92.5H142H146V75H142ZM142 92.5V96.5H144.5V92.5V88.5H142V92.5ZM144.5 92.5H140.5V95H144.5H148.5V92.5H144.5ZM144.5 95V99H149.5V95V91H144.5V95ZM149.5 95H153.5V92.5H149.5H145.5V95H149.5ZM149.5 92.5V96.5H152V92.5V88.5H149.5V92.5ZM152 92.5H156V75H152H148V92.5H152ZM152 75V71H149.5V75V79H152V75ZM149.5 75H153.5V72.5H149.5H145.5V75H149.5ZM149.5 72.5V68.5H144.5V72.5V76.5H149.5V72.5ZM144.5 72.5H140.5V75H144.5H148.5V72.5H144.5ZM144.5 75V71H142V75V79H144.5V75ZM162 67.5V71.5H167V67.5V63.5H162V67.5ZM167 67.5H163V82.5H167H171V67.5H167ZM167 82.5V86.5H174.5V82.5V78.5H167V82.5ZM174.5 82.5H170.5V85H174.5H178.5V82.5H174.5ZM174.5 85V81H167V85V89H174.5V85ZM167 85H163V100H167H171V85H167ZM167 100V96H162V100V104H167V100ZM162 100H166V67.5H162H158V100H162ZM177 70V66H173V70H177ZM194.5 70H198.5V66H194.5V70ZM194.5 82.5V86.5H198.5V82.5H194.5ZM182 82.5V78.5H178V82.5H182ZM182 95H178V99H182V95ZM189.5 95V99H193.5V95H189.5ZM189.5 92.5V88.5H185.5V92.5H189.5ZM194.5 92.5H198.5V88.5H194.5V92.5ZM194.5 95V99H198.5V95H194.5ZM192 95V91H188V95H192ZM192 97.5V101.5H196V97.5H192ZM179.5 97.5H175.5V101.5H179.5V97.5ZM179.5 95H183.5V91H179.5V95ZM177 95H173V99H177V95ZM177 80V76H173V80H177ZM189.5 80V84H193.5V80H189.5ZM189.5 72.5H193.5V68.5H189.5V72.5ZM177 72.5H173V76.5H177V72.5ZM204.5 67.5V63.5H200.5V67.5H204.5ZM209.5 67.5H213.5V63.5H209.5V67.5ZM209.5 100V104H213.5V100H209.5ZM204.5 100H200.5V104H204.5V100ZM177 70V74H194.5V70V66H177V70ZM194.5 70H190.5V82.5H194.5H198.5V70H194.5ZM194.5 82.5V78.5H182V82.5V86.5H194.5V82.5ZM182 82.5H178V95H182H186V82.5H182ZM182 95V99H189.5V95V91H182V95ZM189.5 95H193.5V92.5H189.5H185.5V95H189.5ZM189.5 92.5V96.5H194.5V92.5V88.5H189.5V92.5ZM194.5 92.5H190.5V95H194.5H198.5V92.5H194.5ZM194.5 95V91H192V95V99H194.5V95ZM192 95H188V97.5H192H196V95H192ZM192 97.5V93.5H179.5V97.5V101.5H192V97.5ZM179.5 97.5H183.5V95H179.5H175.5V97.5H179.5ZM179.5 95V91H177V95V99H179.5V95ZM177 95H181V80H177H173V95H177ZM177 80V84H189.5V80V76H177V80ZM189.5 80H193.5V72.5H189.5H185.5V80H189.5ZM189.5 72.5V68.5H177V72.5V76.5H189.5V72.5ZM177 72.5H181V70H177H173V72.5H177ZM204.5 67.5V71.5H209.5V67.5V63.5H204.5V67.5ZM209.5 67.5H205.5V100H209.5H213.5V67.5H209.5ZM209.5 100V96H204.5V100V104H209.5V100ZM204.5 100H208.5V67.5H204.5H200.5V100H204.5ZM219.5 67.5V63.5H215.5V67.5H219.5ZM224.5 67.5H228.5V63.5H224.5V67.5ZM224.5 77.5H220.5V81.5H224.5V77.5ZM249.5 77.5H253.5V73.5H249.5V77.5ZM249.5 80V84H253.5V80H249.5ZM222 80H218V84H222V80ZM222 77.5H226V73.5H222V77.5ZM219.5 77.5H215.5V81.5H219.5V77.5ZM217 82.5V78.5H213V82.5H217ZM252 82.5H256V78.5H252V82.5ZM252 85V89H256V85H252ZM217 85H213V89H217V85ZM219.5 87.5V83.5H215.5V87.5H219.5ZM224.5 87.5H228.5V83.5H224.5V87.5ZM224.5 97.5H220.5V101.5H224.5V97.5ZM249.5 97.5H253.5V93.5H249.5V97.5ZM249.5 100V104H253.5V100H249.5ZM222 100H218V104H222V100ZM222 97.5H226V93.5H222V97.5ZM219.5 97.5H215.5V101.5H219.5V97.5ZM219.5 67.5V71.5H224.5V67.5V63.5H219.5V67.5ZM224.5 67.5H220.5V77.5H224.5H228.5V67.5H224.5ZM224.5 77.5V81.5H249.5V77.5V73.5H224.5V77.5ZM249.5 77.5H245.5V80H249.5H253.5V77.5H249.5ZM249.5 80V76H222V80V84H249.5V80ZM222 80H226V77.5H222H218V80H222ZM222 77.5V73.5H219.5V77.5V81.5H222V77.5ZM219.5 77.5H223.5V67.5H219.5H215.5V77.5H219.5ZM217 82.5V86.5H252V82.5V78.5H217V82.5ZM252 82.5H248V85H252H256V82.5H252ZM252 85V81H217V85V89H252V85ZM217 85H221V82.5H217H213V85H217ZM219.5 87.5V91.5H224.5V87.5V83.5H219.5V87.5ZM224.5 87.5H220.5V97.5H224.5H228.5V87.5H224.5ZM224.5 97.5V101.5H249.5V97.5V93.5H224.5V97.5ZM249.5 97.5H245.5V100H249.5H253.5V97.5H249.5ZM249.5 100V96H222V100V104H249.5V100ZM222 100H226V97.5H222H218V100H222ZM222 97.5V93.5H219.5V97.5V101.5H222V97.5ZM219.5 97.5H223.5V87.5H219.5H215.5V97.5H219.5ZM254.5 72.5V68.5H250.5V72.5H254.5ZM257 72.5V76.5H261V72.5H257ZM257 70V66H253V70H257ZM269.5 70H273.5V66H269.5V70ZM269.5 72.5H265.5V76.5H269.5V72.5ZM272 72.5H276V68.5H272V72.5ZM272 77.5V81.5H276V77.5H272ZM269.5 77.5V73.5H265.5V77.5H269.5ZM269.5 80V84H273.5V80H269.5ZM267 80V76H263V80H267ZM267 87.5V91.5H271V87.5H267ZM262 87.5H258V91.5H262V87.5ZM262 80V76H258V80H262ZM264.5 80V84H268.5V80H264.5ZM264.5 77.5V73.5H260.5V77.5H264.5ZM267 77.5V81.5H271V77.5H267ZM267 72.5H271V68.5H267V72.5ZM259.5 72.5V68.5H255.5V72.5H259.5ZM259.5 77.5V81.5H263.5V77.5H259.5ZM254.5 77.5H250.5V81.5H254.5V77.5ZM262 90V86H258V90H262ZM267 90H271V86H267V90ZM267 95V99H271V95H267ZM262 95H258V99H262V95ZM254.5 72.5V76.5H257V72.5V68.5H254.5V72.5ZM257 72.5H261V70H257H253V72.5H257ZM257 70V74H269.5V70V66H257V70ZM269.5 70H265.5V72.5H269.5H273.5V70H269.5ZM269.5 72.5V76.5H272V72.5V68.5H269.5V72.5ZM272 72.5H268V77.5H272H276V72.5H272ZM272 77.5V73.5H269.5V77.5V81.5H272V77.5ZM269.5 77.5H265.5V80H269.5H273.5V77.5H269.5ZM269.5 80V76H267V80V84H269.5V80ZM267 80H263V87.5H267H271V80H267ZM267 87.5V83.5H262V87.5V91.5H267V87.5ZM262 87.5H266V80H262H258V87.5H262ZM262 80V84H264.5V80V76H262V80ZM264.5 80H268.5V77.5H264.5H260.5V80H264.5ZM264.5 77.5V81.5H267V77.5V73.5H264.5V77.5ZM267 77.5H271V72.5H267H263V77.5H267ZM267 72.5V68.5H259.5V72.5V76.5H267V72.5ZM259.5 72.5H255.5V77.5H259.5H263.5V72.5H259.5ZM259.5 77.5V73.5H254.5V77.5V81.5H259.5V77.5ZM254.5 77.5H258.5V72.5H254.5H250.5V77.5H254.5ZM262 90V94H267V90V86H262V90ZM267 90H263V95H267H271V90H267ZM267 95V91H262V95V99H267V95ZM262 95H266V90H262H258V95H262Z" fill="white" mask="url(#path-3-outside-2_6_53)"/>
</svg>
