<svg width="311" height="277" viewBox="0 0 311 277" fill="none" xmlns="http://www.w3.org/2000/svg">
<mask id="path-1-outside-1_6_14" maskUnits="userSpaceOnUse" x="2" y="8.5" width="92" height="74" fill="black">
<rect fill="white" x="2" y="8.5" width="92" height="74"/>
<path d="M12 12.5H24V48.5H84V54.5H18V48.5H12V12.5ZM6 72.5H90V78.5H6V72.5Z"/>
</mask>
<path d="M12 12.5H24V48.5H84V54.5H18V48.5H12V12.5ZM6 72.5H90V78.5H6V72.5Z" fill="#FF7710"/>
<path d="M12 12.5V8.5H8V12.5H12ZM24 12.5H28V8.5H24V12.5ZM24 48.5H20V52.5H24V48.5ZM84 48.5H88V44.5H84V48.5ZM84 54.5V58.5H88V54.5H84ZM18 54.5H14V58.5H18V54.5ZM18 48.5H22V44.5H18V48.5ZM12 48.5H8V52.5H12V48.5ZM6 72.5V68.5H2V72.5H6ZM90 72.5H94V68.5H90V72.5ZM90 78.5V82.5H94V78.5H90ZM6 78.5H2V82.5H6V78.5ZM12 12.5V16.5H24V12.5V8.5H12V12.5ZM24 12.5H20V48.5H24H28V12.5H24ZM24 48.5V52.5H84V48.5V44.5H24V48.5ZM84 48.5H80V54.5H84H88V48.5H84ZM84 54.5V50.5H18V54.5V58.5H84V54.5ZM18 54.5H22V48.5H18H14V54.5H18ZM18 48.5V44.5H12V48.5V52.5H18V48.5ZM12 48.5H16V12.5H12H8V48.5H12ZM6 72.5V76.5H90V72.5V68.5H6V72.5ZM90 72.5H86V78.5H90H94V72.5H90ZM90 78.5V74.5H6V78.5V82.5H90V78.5ZM6 78.5H10V72.5H6H2V78.5H6Z" fill="white" mask="url(#path-1-outside-1_6_14)"/>
<mask id="path-3-outside-2_6_14" maskUnits="userSpaceOnUse" x="109" y="58.5" width="38" height="38" fill="black">
<rect fill="white" x="109" y="58.5" width="38" height="38"/>
<path d="M113.25 62.75H131.25V76.25H129V78.5H124.5V76.25H126.75V65H122.25V76.25H120V78.5H115.5V76.25H117.75V65H113.25V62.75ZM138 62.75H142.5V78.5H138V62.75ZM115.5 80.75H142.5V89.75H140.25V92H117.75V89.75H115.5V80.75ZM120 83V89.75H138V83H120Z"/>
</mask>
<path d="M113.25 62.75H131.25V76.25H129V78.5H124.5V76.25H126.75V65H122.25V76.25H120V78.5H115.5V76.25H117.75V65H113.25V62.75ZM138 62.75H142.5V78.5H138V62.75ZM115.5 80.75H142.5V89.75H140.25V92H117.75V89.75H115.5V80.75ZM120 83V89.75H138V83H120Z" fill="#A8A8A8"/>
<path d="M113.25 62.75V58.75H109.25V62.75H113.25ZM131.25 62.75H135.25V58.75H131.25V62.75ZM131.25 76.25V80.25H135.25V76.25H131.25ZM129 76.25V72.25H125V76.25H129ZM129 78.5V82.5H133V78.5H129ZM124.5 78.5H120.5V82.5H124.5V78.5ZM124.5 76.25V72.25H120.5V76.25H124.5ZM126.75 76.25V80.25H130.75V76.25H126.75ZM126.75 65H130.75V61H126.75V65ZM122.25 65V61H118.25V65H122.25ZM122.25 76.25V80.25H126.25V76.25H122.25ZM120 76.25V72.25H116V76.25H120ZM120 78.5V82.5H124V78.5H120ZM115.5 78.5H111.5V82.5H115.5V78.5ZM115.5 76.25V72.25H111.5V76.25H115.5ZM117.75 76.25V80.25H121.75V76.25H117.75ZM117.75 65H121.75V61H117.75V65ZM113.25 65H109.25V69H113.25V65ZM138 62.75V58.75H134V62.75H138ZM142.5 62.75H146.5V58.75H142.5V62.75ZM142.5 78.5V82.5H146.5V78.5H142.5ZM138 78.5H134V82.5H138V78.5ZM115.5 80.75V76.75H111.5V80.75H115.5ZM142.5 80.75H146.5V76.75H142.5V80.75ZM142.5 89.75V93.75H146.5V89.75H142.5ZM140.25 89.75V85.75H136.25V89.75H140.25ZM140.25 92V96H144.25V92H140.25ZM117.75 92H113.75V96H117.75V92ZM117.75 89.75H121.75V85.75H117.75V89.75ZM115.5 89.75H111.5V93.75H115.5V89.75ZM120 83V79H116V83H120ZM120 89.75H116V93.75H120V89.75ZM138 89.75V93.75H142V89.75H138ZM138 83H142V79H138V83ZM113.25 62.75V66.75H131.25V62.75V58.75H113.25V62.75ZM131.25 62.75H127.25V76.25H131.25H135.25V62.75H131.25ZM131.25 76.25V72.25H129V76.25V80.25H131.25V76.25ZM129 76.25H125V78.5H129H133V76.25H129ZM129 78.5V74.5H124.5V78.5V82.5H129V78.5ZM124.5 78.5H128.5V76.25H124.5H120.5V78.5H124.5ZM124.5 76.25V80.25H126.75V76.25V72.25H124.5V76.25ZM126.75 76.25H130.75V65H126.75H122.75V76.25H126.75ZM126.75 65V61H122.25V65V69H126.75V65ZM122.25 65H118.25V76.25H122.25H126.25V65H122.25ZM122.25 76.25V72.25H120V76.25V80.25H122.25V76.25ZM120 76.25H116V78.5H120H124V76.25H120ZM120 78.5V74.5H115.5V78.5V82.5H120V78.5ZM115.5 78.5H119.5V76.25H115.5H111.5V78.5H115.5ZM115.5 76.25V80.25H117.75V76.25V72.25H115.5V76.25ZM117.75 76.25H121.75V65H117.75H113.75V76.25H117.75ZM117.75 65V61H113.25V65V69H117.75V65ZM113.25 65H117.25V62.75H113.25H109.25V65H113.25ZM138 62.75V66.75H142.5V62.75V58.75H138V62.75ZM142.5 62.75H138.5V78.5H142.5H146.5V62.75H142.5ZM142.5 78.5V74.5H138V78.5V82.5H142.5V78.5ZM138 78.5H142V62.75H138H134V78.5H138ZM115.5 80.75V84.75H142.5V80.75V76.75H115.5V80.75ZM142.5 80.75H138.5V89.75H142.5H146.5V80.75H142.5ZM142.5 89.75V85.75H140.25V89.75V93.75H142.5V89.75ZM140.25 89.75H136.25V92H140.25H144.25V89.75H140.25ZM140.25 92V88H117.75V92V96H140.25V92ZM117.75 92H121.75V89.75H117.75H113.75V92H117.75ZM117.75 89.75V85.75H115.5V89.75V93.75H117.75V89.75ZM115.5 89.75H119.5V80.75H115.5H111.5V89.75H115.5ZM120 83H116V89.75H120H124V83H120ZM120 89.75V93.75H138V89.75V85.75H120V89.75ZM138 89.75H142V83H138H134V89.75H138ZM138 83V79H120V83V87H138V83Z" fill="white" mask="url(#path-3-outside-2_6_14)"/>
<mask id="path-5-outside-3_6_14" maskUnits="userSpaceOnUse" x="164" y="2.5" width="92" height="86" fill="black">
<rect fill="white" x="164" y="2.5" width="92" height="86"/>
<path d="M174 6.5H246V12.5H216V18.5H222V24.5H228V30.5H246V36.5H222V30.5H216V24.5H204V30.5H198V36.5H174V30.5H192V24.5H198V18.5H204V12.5H174V6.5ZM168 42.5H204V30.5H216V42.5H252V48.5H168V42.5ZM174 60.5H204V54.5H216V60.5H246V66.5H240V72.5H246V78.5H240V84.5H180V78.5H174V72.5H180V66.5H174V60.5ZM186 72.5V78.5H234V72.5H186Z"/>
</mask>
<path d="M174 6.5H246V12.5H216V18.5H222V24.5H228V30.5H246V36.5H222V30.5H216V24.5H204V30.5H198V36.5H174V30.5H192V24.5H198V18.5H204V12.5H174V6.5ZM168 42.5H204V30.5H216V42.5H252V48.5H168V42.5ZM174 60.5H204V54.5H216V60.5H246V66.5H240V72.5H246V78.5H240V84.5H180V78.5H174V72.5H180V66.5H174V60.5ZM186 72.5V78.5H234V72.5H186Z" fill="#FF7710"/>
<path d="M174 6.5V2.5H170V6.5H174ZM246 6.5H250V2.5H246V6.5ZM246 12.5V16.5H250V12.5H246ZM216 12.5V8.5H212V12.5H216ZM216 18.5H212V22.5H216V18.5ZM222 18.5H226V14.5H222V18.5ZM222 24.5H218V28.5H222V24.5ZM228 24.5H232V20.5H228V24.5ZM228 30.5H224V34.5H228V30.5ZM246 30.5H250V26.5H246V30.5ZM246 36.5V40.5H250V36.5H246ZM222 36.5H218V40.5H222V36.5ZM222 30.5H226V26.5H222V30.5ZM216 30.5H212V34.5H216V30.5ZM216 24.5H220V20.5H216V24.5ZM204 24.5V20.5H200V24.5H204ZM204 30.5V34.5H208V30.5H204ZM198 30.5V26.5H194V30.5H198ZM198 36.5V40.5H202V36.5H198ZM174 36.5H170V40.5H174V36.5ZM174 30.5V26.5H170V30.5H174ZM192 30.5V34.5H196V30.5H192ZM192 24.5V20.5H188V24.5H192ZM198 24.5V28.5H202V24.5H198ZM198 18.5V14.5H194V18.5H198ZM204 18.5V22.5H208V18.5H204ZM204 12.5H208V8.5H204V12.5ZM174 12.5H170V16.5H174V12.5ZM168 42.5V38.5H164V42.5H168ZM204 42.5V46.5H208V42.5H204ZM204 30.5V26.5H200V30.5H204ZM216 30.5H220V26.5H216V30.5ZM216 42.5H212V46.5H216V42.5ZM252 42.5H256V38.5H252V42.5ZM252 48.5V52.5H256V48.5H252ZM168 48.5H164V52.5H168V48.5ZM174 60.5V56.5H170V60.5H174ZM204 60.5V64.5H208V60.5H204ZM204 54.5V50.5H200V54.5H204ZM216 54.5H220V50.5H216V54.5ZM216 60.5H212V64.5H216V60.5ZM246 60.5H250V56.5H246V60.5ZM246 66.5V70.5H250V66.5H246ZM240 66.5V62.5H236V66.5H240ZM240 72.5H236V76.5H240V72.5ZM246 72.5H250V68.5H246V72.5ZM246 78.5V82.5H250V78.5H246ZM240 78.5V74.5H236V78.5H240ZM240 84.5V88.5H244V84.5H240ZM180 84.5H176V88.5H180V84.5ZM180 78.5H184V74.5H180V78.5ZM174 78.5H170V82.5H174V78.5ZM174 72.5V68.5H170V72.5H174ZM180 72.5V76.5H184V72.5H180ZM180 66.5H184V62.5H180V66.5ZM174 66.5H170V70.5H174V66.5ZM186 72.5V68.5H182V72.5H186ZM186 78.5H182V82.5H186V78.5ZM234 78.5V82.5H238V78.5H234ZM234 72.5H238V68.5H234V72.5ZM174 6.5V10.5H246V6.5V2.5H174V6.5ZM246 6.5H242V12.5H246H250V6.5H246ZM246 12.5V8.5H216V12.5V16.5H246V12.5ZM216 12.5H212V18.5H216H220V12.5H216ZM216 18.5V22.5H222V18.5V14.5H216V18.5ZM222 18.5H218V24.5H222H226V18.5H222ZM222 24.5V28.5H228V24.5V20.5H222V24.5ZM228 24.5H224V30.5H228H232V24.5H228ZM228 30.5V34.5H246V30.5V26.5H228V30.5ZM246 30.5H242V36.5H246H250V30.5H246ZM246 36.5V32.5H222V36.5V40.5H246V36.5ZM222 36.5H226V30.5H222H218V36.5H222ZM222 30.5V26.5H216V30.5V34.5H222V30.5ZM216 30.5H220V24.5H216H212V30.5H216ZM216 24.5V20.5H204V24.5V28.5H216V24.5ZM204 24.5H200V30.5H204H208V24.5H204ZM204 30.5V26.5H198V30.5V34.5H204V30.5ZM198 30.5H194V36.5H198H202V30.5H198ZM198 36.5V32.5H174V36.5V40.5H198V36.5ZM174 36.5H178V30.5H174H170V36.5H174ZM174 30.5V34.5H192V30.5V26.5H174V30.5ZM192 30.5H196V24.5H192H188V30.5H192ZM192 24.5V28.5H198V24.5V20.5H192V24.5ZM198 24.5H202V18.5H198H194V24.5H198ZM198 18.5V22.5H204V18.5V14.5H198V18.5ZM204 18.5H208V12.5H204H200V18.5H204ZM204 12.5V8.5H174V12.5V16.5H204V12.5ZM174 12.5H178V6.5H174H170V12.5H174ZM168 42.5V46.5H204V42.5V38.5H168V42.5ZM204 42.5H208V30.5H204H200V42.5H204ZM204 30.5V34.5H216V30.5V26.5H204V30.5ZM216 30.5H212V42.5H216H220V30.5H216ZM216 42.5V46.5H252V42.5V38.5H216V42.5ZM252 42.5H248V48.5H252H256V42.5H252ZM252 48.5V44.5H168V48.5V52.5H252V48.5ZM168 48.5H172V42.5H168H164V48.5H168ZM174 60.5V64.5H204V60.5V56.5H174V60.5ZM204 60.5H208V54.5H204H200V60.5H204ZM204 54.5V58.5H216V54.5V50.5H204V54.5ZM216 54.5H212V60.5H216H220V54.5H216ZM216 60.5V64.5H246V60.5V56.5H216V60.5ZM246 60.5H242V66.5H246H250V60.5H246ZM246 66.5V62.5H240V66.5V70.5H246V66.5ZM240 66.5H236V72.5H240H244V66.5H240ZM240 72.5V76.5H246V72.5V68.5H240V72.5ZM246 72.5H242V78.5H246H250V72.5H246ZM246 78.5V74.5H240V78.5V82.5H246V78.5ZM240 78.5H236V84.5H240H244V78.5H240ZM240 84.5V80.5H180V84.5V88.5H240V84.5ZM180 84.5H184V78.5H180H176V84.5H180ZM180 78.5V74.5H174V78.5V82.5H180V78.5ZM174 78.5H178V72.5H174H170V78.5H174ZM174 72.5V76.5H180V72.5V68.5H174V72.5ZM180 72.5H184V66.5H180H176V72.5H180ZM180 66.5V62.5H174V66.5V70.5H180V66.5ZM174 66.5H178V60.5H174H170V66.5H174ZM186 72.5H182V78.5H186H190V72.5H186ZM186 78.5V82.5H234V78.5V74.5H186V78.5ZM234 78.5H238V72.5H234H230V78.5H234ZM234 72.5V68.5H186V72.5V76.5H234V72.5Z" fill="white" mask="url(#path-5-outside-3_6_14)"/>
<mask id="path-7-outside-4_6_14" maskUnits="userSpaceOnUse" x="271" y="58.5" width="40" height="38" fill="black">
<rect fill="white" x="271" y="58.5" width="40" height="38"/>
<path d="M277.5 65H282V62.75H300V65H304.5V71.75H300V74H282V71.75H277.5V65ZM282 67.25V69.5H284.25V71.75H297.75V69.5H300V67.25H297.75V65H284.25V67.25H282ZM275.25 76.25H306.75V78.5H275.25V76.25ZM277.5 80.75H282V89.75H304.5V92H279.75V89.75H277.5V80.75Z"/>
</mask>
<path d="M277.5 65H282V62.75H300V65H304.5V71.75H300V74H282V71.75H277.5V65ZM282 67.25V69.5H284.25V71.75H297.75V69.5H300V67.25H297.75V65H284.25V67.25H282ZM275.25 76.25H306.75V78.5H275.25V76.25ZM277.5 80.75H282V89.75H304.5V92H279.75V89.75H277.5V80.75Z" fill="#A8A8A8"/>
<path d="M277.5 65V61H273.5V65H277.5ZM282 65V69H286V65H282ZM282 62.75V58.75H278V62.75H282ZM300 62.75H304V58.75H300V62.75ZM300 65H296V69H300V65ZM304.5 65H308.5V61H304.5V65ZM304.5 71.75V75.75H308.5V71.75H304.5ZM300 71.75V67.75H296V71.75H300ZM300 74V78H304V74H300ZM282 74H278V78H282V74ZM282 71.75H286V67.75H282V71.75ZM277.5 71.75H273.5V75.75H277.5V71.75ZM282 67.25V63.25H278V67.25H282ZM282 69.5H278V73.5H282V69.5ZM284.25 69.5H288.25V65.5H284.25V69.5ZM284.25 71.75H280.25V75.75H284.25V71.75ZM297.75 71.75V75.75H301.75V71.75H297.75ZM297.75 69.5V65.5H293.75V69.5H297.75ZM300 69.5V73.5H304V69.5H300ZM300 67.25H304V63.25H300V67.25ZM297.75 67.25H293.75V71.25H297.75V67.25ZM297.75 65H301.75V61H297.75V65ZM284.25 65V61H280.25V65H284.25ZM284.25 67.25V71.25H288.25V67.25H284.25ZM275.25 76.25V72.25H271.25V76.25H275.25ZM306.75 76.25H310.75V72.25H306.75V76.25ZM306.75 78.5V82.5H310.75V78.5H306.75ZM275.25 78.5H271.25V82.5H275.25V78.5ZM277.5 80.75V76.75H273.5V80.75H277.5ZM282 80.75H286V76.75H282V80.75ZM282 89.75H278V93.75H282V89.75ZM304.5 89.75H308.5V85.75H304.5V89.75ZM304.5 92V96H308.5V92H304.5ZM279.75 92H275.75V96H279.75V92ZM279.75 89.75H283.75V85.75H279.75V89.75ZM277.5 89.75H273.5V93.75H277.5V89.75ZM277.5 65V69H282V65V61H277.5V65ZM282 65H286V62.75H282H278V65H282ZM282 62.75V66.75H300V62.75V58.75H282V62.75ZM300 62.75H296V65H300H304V62.75H300ZM300 65V69H304.5V65V61H300V65ZM304.5 65H300.5V71.75H304.5H308.5V65H304.5ZM304.5 71.75V67.75H300V71.75V75.75H304.5V71.75ZM300 71.75H296V74H300H304V71.75H300ZM300 74V70H282V74V78H300V74ZM282 74H286V71.75H282H278V74H282ZM282 71.75V67.75H277.5V71.75V75.75H282V71.75ZM277.5 71.75H281.5V65H277.5H273.5V71.75H277.5ZM282 67.25H278V69.5H282H286V67.25H282ZM282 69.5V73.5H284.25V69.5V65.5H282V69.5ZM284.25 69.5H280.25V71.75H284.25H288.25V69.5H284.25ZM284.25 71.75V75.75H297.75V71.75V67.75H284.25V71.75ZM297.75 71.75H301.75V69.5H297.75H293.75V71.75H297.75ZM297.75 69.5V73.5H300V69.5V65.5H297.75V69.5ZM300 69.5H304V67.25H300H296V69.5H300ZM300 67.25V63.25H297.75V67.25V71.25H300V67.25ZM297.75 67.25H301.75V65H297.75H293.75V67.25H297.75ZM297.75 65V61H284.25V65V69H297.75V65ZM284.25 65H280.25V67.25H284.25H288.25V65H284.25ZM284.25 67.25V63.25H282V67.25V71.25H284.25V67.25ZM275.25 76.25V80.25H306.75V76.25V72.25H275.25V76.25ZM306.75 76.25H302.75V78.5H306.75H310.75V76.25H306.75ZM306.75 78.5V74.5H275.25V78.5V82.5H306.75V78.5ZM275.25 78.5H279.25V76.25H275.25H271.25V78.5H275.25ZM277.5 80.75V84.75H282V80.75V76.75H277.5V80.75ZM282 80.75H278V89.75H282H286V80.75H282ZM282 89.75V93.75H304.5V89.75V85.75H282V89.75ZM304.5 89.75H300.5V92H304.5H308.5V89.75H304.5ZM304.5 92V88H279.75V92V96H304.5V92ZM279.75 92H283.75V89.75H279.75H275.75V92H279.75ZM279.75 89.75V85.75H277.5V89.75V93.75H279.75V89.75ZM277.5 89.75H281.5V80.75H277.5H273.5V89.75H277.5Z" fill="white" mask="url(#path-7-outside-4_6_14)"/>
<mask id="path-9-outside-5_6_14" maskUnits="userSpaceOnUse" x="12.5" y="122.5" width="278" height="86" fill="black">
<rect fill="white" x="12.5" y="122.5" width="278" height="86"/>
<path d="M22.5 126.5H94.5V132.5H34.5V150.5H94.5V156.5H28.5V150.5H22.5V126.5ZM16.5 162.5H52.5V150.5H64.5V162.5H100.5V168.5H16.5V162.5ZM22.5 180.5H34.5V174.5H82.5V180.5H94.5V198.5H82.5V204.5H34.5V198.5H22.5V180.5ZM34.5 186.5V192.5H40.5V198.5H76.5V192.5H82.5V186.5H76.5V180.5H40.5V186.5H34.5ZM112.5 144.5H118.5V138.5H124.5V132.5H148.5V138.5H154.5V144.5H160.5V186.5H154.5V192.5H148.5V198.5H124.5V192.5H118.5V186.5H112.5V144.5ZM124.5 144.5V186.5H130.5V192.5H142.5V186.5H148.5V144.5H142.5V138.5H130.5V144.5H124.5ZM172.5 126.5H184.5V162.5H202.5V168.5H184.5V204.5H172.5V126.5ZM208.5 132.5H250.5V162.5H220.5V192.5H238.5V186.5H250.5V192.5H244.5V198.5H214.5V192.5H208.5V156.5H238.5V138.5H208.5V132.5ZM274.5 126.5H286.5V204.5H274.5V126.5Z"/>
</mask>
<path d="M22.5 126.5H94.5V132.5H34.5V150.5H94.5V156.5H28.5V150.5H22.5V126.5ZM16.5 162.5H52.5V150.5H64.5V162.5H100.5V168.5H16.5V162.5ZM22.5 180.5H34.5V174.5H82.5V180.5H94.5V198.5H82.5V204.5H34.5V198.5H22.5V180.5ZM34.5 186.5V192.5H40.5V198.5H76.5V192.5H82.5V186.5H76.5V180.5H40.5V186.5H34.5ZM112.5 144.5H118.5V138.5H124.5V132.5H148.5V138.5H154.5V144.5H160.5V186.5H154.5V192.5H148.5V198.5H124.5V192.5H118.5V186.5H112.5V144.5ZM124.5 144.5V186.5H130.5V192.5H142.5V186.5H148.5V144.5H142.5V138.5H130.5V144.5H124.5ZM172.5 126.5H184.5V162.5H202.5V168.5H184.5V204.5H172.5V126.5ZM208.5 132.5H250.5V162.5H220.5V192.5H238.5V186.5H250.5V192.5H244.5V198.5H214.5V192.5H208.5V156.5H238.5V138.5H208.5V132.5ZM274.5 126.5H286.5V204.5H274.5V126.5Z" fill="#FF7710"/>
<path d="M22.5 126.5V122.5H18.5V126.5H22.5ZM94.5 126.5H98.5V122.5H94.5V126.5ZM94.5 132.5V136.5H98.5V132.5H94.5ZM34.5 132.5V128.5H30.5V132.5H34.5ZM34.5 150.5H30.5V154.5H34.5V150.5ZM94.5 150.5H98.5V146.5H94.5V150.5ZM94.5 156.5V160.5H98.5V156.5H94.5ZM28.5 156.5H24.5V160.5H28.5V156.5ZM28.5 150.5H32.5V146.5H28.5V150.5ZM22.5 150.5H18.5V154.5H22.5V150.5ZM16.5 162.5V158.5H12.5V162.5H16.5ZM52.5 162.5V166.5H56.5V162.5H52.5ZM52.5 150.5V146.5H48.5V150.5H52.5ZM64.5 150.5H68.5V146.5H64.5V150.5ZM64.5 162.5H60.5V166.5H64.5V162.5ZM100.5 162.5H104.5V158.5H100.5V162.5ZM100.5 168.5V172.5H104.5V168.5H100.5ZM16.5 168.5H12.5V172.5H16.5V168.5ZM22.5 180.5V176.5H18.5V180.5H22.5ZM34.5 180.5V184.5H38.5V180.5H34.5ZM34.5 174.5V170.5H30.5V174.5H34.5ZM82.5 174.5H86.5V170.5H82.5V174.5ZM82.5 180.5H78.5V184.5H82.5V180.5ZM94.5 180.5H98.5V176.5H94.5V180.5ZM94.5 198.5V202.5H98.5V198.5H94.5ZM82.5 198.5V194.5H78.5V198.5H82.5ZM82.5 204.5V208.5H86.5V204.5H82.5ZM34.5 204.5H30.5V208.5H34.5V204.5ZM34.5 198.5H38.5V194.5H34.5V198.5ZM22.5 198.5H18.5V202.5H22.5V198.5ZM34.5 186.5V182.5H30.5V186.5H34.5ZM34.5 192.5H30.5V196.5H34.5V192.5ZM40.5 192.5H44.5V188.5H40.5V192.5ZM40.5 198.5H36.5V202.5H40.5V198.5ZM76.5 198.5V202.5H80.5V198.5H76.5ZM76.5 192.5V188.5H72.5V192.5H76.5ZM82.5 192.5V196.5H86.5V192.5H82.5ZM82.5 186.5H86.5V182.5H82.5V186.5ZM76.5 186.5H72.5V190.5H76.5V186.5ZM76.5 180.5H80.5V176.5H76.5V180.5ZM40.5 180.5V176.5H36.5V180.5H40.5ZM40.5 186.5V190.5H44.5V186.5H40.5ZM22.5 126.5V130.5H94.5V126.5V122.5H22.5V126.5ZM94.5 126.5H90.5V132.5H94.5H98.5V126.5H94.5ZM94.5 132.5V128.5H34.5V132.5V136.5H94.5V132.5ZM34.5 132.5H30.5V150.5H34.5H38.5V132.5H34.5ZM34.5 150.5V154.5H94.5V150.5V146.5H34.5V150.5ZM94.5 150.5H90.5V156.5H94.5H98.5V150.5H94.5ZM94.5 156.5V152.5H28.5V156.5V160.5H94.5V156.5ZM28.5 156.5H32.5V150.5H28.5H24.5V156.5H28.5ZM28.5 150.5V146.5H22.5V150.5V154.5H28.5V150.5ZM22.5 150.5H26.5V126.5H22.5H18.5V150.5H22.5ZM16.5 162.5V166.5H52.5V162.5V158.5H16.5V162.5ZM52.5 162.5H56.5V150.5H52.5H48.5V162.5H52.5ZM52.5 150.5V154.5H64.5V150.5V146.5H52.5V150.5ZM64.5 150.5H60.5V162.5H64.5H68.5V150.5H64.5ZM64.5 162.5V166.5H100.5V162.5V158.5H64.5V162.5ZM100.5 162.5H96.5V168.5H100.5H104.5V162.5H100.5ZM100.5 168.5V164.5H16.5V168.5V172.5H100.5V168.5ZM16.5 168.5H20.5V162.5H16.5H12.5V168.5H16.5ZM22.5 180.5V184.5H34.5V180.5V176.5H22.5V180.5ZM34.5 180.5H38.5V174.5H34.5H30.5V180.5H34.5ZM34.5 174.5V178.5H82.5V174.5V170.5H34.5V174.5ZM82.5 174.5H78.5V180.5H82.5H86.5V174.5H82.5ZM82.5 180.5V184.5H94.5V180.5V176.5H82.5V180.5ZM94.5 180.5H90.5V198.5H94.5H98.5V180.5H94.5ZM94.5 198.5V194.5H82.5V198.5V202.5H94.5V198.5ZM82.5 198.5H78.5V204.5H82.5H86.5V198.5H82.5ZM82.5 204.5V200.5H34.5V204.5V208.5H82.5V204.5ZM34.5 204.5H38.5V198.5H34.5H30.5V204.5H34.5ZM34.5 198.5V194.5H22.5V198.5V202.5H34.5V198.5ZM22.5 198.5H26.5V180.5H22.5H18.5V198.5H22.5ZM34.5 186.5H30.5V192.5H34.5H38.5V186.5H34.5ZM34.5 192.5V196.5H40.5V192.5V188.5H34.5V192.5ZM40.5 192.5H36.5V198.5H40.5H44.5V192.5H40.5ZM40.5 198.5V202.5H76.5V198.5V194.5H40.5V198.5ZM76.5 198.5H80.5V192.5H76.5H72.5V198.5H76.5ZM76.5 192.5V196.5H82.5V192.5V188.5H76.5V192.5ZM82.5 192.5H86.5V186.5H82.5H78.5V192.5H82.5ZM82.5 186.5V182.5H76.5V186.5V190.5H82.5V186.5ZM76.5 186.5H80.5V180.5H76.5H72.5V186.5H76.5ZM76.5 180.5V176.5H40.5V180.5V184.5H76.5V180.5ZM40.5 180.5H36.5V186.5H40.5H44.5V180.5H40.5ZM40.5 186.5V182.5H34.5V186.5V190.5H40.5V186.5ZM112.5 144.5V140.5H108.5V144.5H112.5ZM118.5 144.5V148.5H122.5V144.5H118.5ZM118.5 138.5V134.5H114.5V138.5H118.5ZM124.5 138.5V142.5H128.5V138.5H124.5ZM124.5 132.5V128.5H120.5V132.5H124.5ZM148.5 132.5H152.5V128.5H148.5V132.5ZM148.5 138.5H144.5V142.5H148.5V138.5ZM154.5 138.5H158.5V134.5H154.5V138.5ZM154.5 144.5H150.5V148.5H154.5V144.5ZM160.5 144.5H164.5V140.5H160.5V144.5ZM160.5 186.5V190.5H164.5V186.5H160.5ZM154.5 186.5V182.5H150.5V186.5H154.5ZM154.5 192.5V196.5H158.5V192.5H154.5ZM148.5 192.5V188.5H144.5V192.5H148.5ZM148.5 198.5V202.5H152.5V198.5H148.5ZM124.5 198.5H120.5V202.5H124.5V198.5ZM124.5 192.5H128.5V188.5H124.5V192.5ZM118.5 192.5H114.5V196.5H118.5V192.5ZM118.5 186.5H122.5V182.5H118.5V186.5ZM112.5 186.5H108.5V190.5H112.5V186.5ZM124.5 144.5V140.5H120.5V144.5H124.5ZM124.5 186.5H120.5V190.5H124.5V186.5ZM130.5 186.5H134.5V182.5H130.5V186.5ZM130.5 192.5H126.5V196.5H130.5V192.5ZM142.5 192.5V196.5H146.5V192.5H142.5ZM142.5 186.5V182.5H138.5V186.5H142.5ZM148.5 186.5V190.5H152.5V186.5H148.5ZM148.5 144.5H152.5V140.5H148.5V144.5ZM142.5 144.5H138.5V148.5H142.5V144.5ZM142.5 138.5H146.5V134.5H142.5V138.5ZM130.5 138.5V134.5H126.5V138.5H130.5ZM130.5 144.5V148.5H134.5V144.5H130.5ZM172.5 126.5V122.5H168.5V126.5H172.5ZM184.5 126.5H188.5V122.5H184.5V126.5ZM184.5 162.5H180.5V166.5H184.5V162.5ZM202.5 162.5H206.5V158.5H202.5V162.5ZM202.5 168.5V172.5H206.5V168.5H202.5ZM184.5 168.5V164.5H180.5V168.5H184.5ZM184.5 204.5V208.5H188.5V204.5H184.5ZM172.5 204.5H168.5V208.5H172.5V204.5ZM112.5 144.5V148.5H118.5V144.5V140.5H112.5V144.5ZM118.5 144.5H122.5V138.5H118.5H114.5V144.5H118.5ZM118.5 138.5V142.5H124.5V138.5V134.5H118.5V138.5ZM124.5 138.5H128.5V132.5H124.5H120.5V138.5H124.5ZM124.5 132.5V136.5H148.5V132.5V128.5H124.5V132.5ZM148.5 132.5H144.5V138.5H148.5H152.5V132.5H148.5ZM148.5 138.5V142.5H154.5V138.5V134.5H148.5V138.5ZM154.5 138.5H150.5V144.5H154.5H158.5V138.5H154.5ZM154.5 144.5V148.5H160.5V144.5V140.5H154.5V144.5ZM160.5 144.5H156.5V186.5H160.5H164.5V144.5H160.5ZM160.5 186.5V182.5H154.5V186.5V190.5H160.5V186.5ZM154.5 186.5H150.5V192.5H154.5H158.5V186.5H154.5ZM154.5 192.5V188.5H148.5V192.5V196.5H154.5V192.5ZM148.5 192.5H144.5V198.5H148.5H152.5V192.5H148.5ZM148.5 198.5V194.5H124.5V198.5V202.5H148.5V198.5ZM124.5 198.5H128.5V192.5H124.5H120.5V198.5H124.5ZM124.5 192.5V188.5H118.5V192.5V196.5H124.5V192.5ZM118.5 192.5H122.5V186.5H118.5H114.5V192.5H118.5ZM118.5 186.5V182.5H112.5V186.5V190.5H118.5V186.5ZM112.5 186.5H116.5V144.5H112.5H108.5V186.5H112.5ZM124.5 144.5H120.5V186.5H124.5H128.5V144.5H124.5ZM124.5 186.5V190.5H130.5V186.5V182.5H124.5V186.5ZM130.5 186.5H126.5V192.5H130.5H134.5V186.5H130.5ZM130.5 192.5V196.5H142.5V192.5V188.5H130.5V192.5ZM142.5 192.5H146.5V186.5H142.5H138.5V192.5H142.5ZM142.5 186.5V190.5H148.5V186.5V182.5H142.5V186.5ZM148.5 186.5H152.5V144.5H148.5H144.5V186.5H148.5ZM148.5 144.5V140.5H142.5V144.5V148.5H148.5V144.5ZM142.5 144.5H146.5V138.5H142.5H138.5V144.5H142.5ZM142.5 138.5V134.5H130.5V138.5V142.5H142.5V138.5ZM130.5 138.5H126.5V144.5H130.5H134.5V138.5H130.5ZM130.5 144.5V140.5H124.5V144.5V148.5H130.5V144.5ZM172.5 126.5V130.5H184.5V126.5V122.5H172.5V126.5ZM184.5 126.5H180.5V162.5H184.5H188.5V126.5H184.5ZM184.5 162.5V166.5H202.5V162.5V158.5H184.5V162.5ZM202.5 162.5H198.5V168.5H202.5H206.5V162.5H202.5ZM202.5 168.5V164.5H184.5V168.5V172.5H202.5V168.5ZM184.5 168.5H180.5V204.5H184.5H188.5V168.5H184.5ZM184.5 204.5V200.5H172.5V204.5V208.5H184.5V204.5ZM172.5 204.5H176.5V126.5H172.5H168.5V204.5H172.5ZM208.5 132.5V128.5H204.5V132.5H208.5ZM250.5 132.5H254.5V128.5H250.5V132.5ZM250.5 162.5V166.5H254.5V162.5H250.5ZM220.5 162.5V158.5H216.5V162.5H220.5ZM220.5 192.5H216.5V196.5H220.5V192.5ZM238.5 192.5V196.5H242.5V192.5H238.5ZM238.5 186.5V182.5H234.5V186.5H238.5ZM250.5 186.5H254.5V182.5H250.5V186.5ZM250.5 192.5V196.5H254.5V192.5H250.5ZM244.5 192.5V188.5H240.5V192.5H244.5ZM244.5 198.5V202.5H248.5V198.5H244.5ZM214.5 198.5H210.5V202.5H214.5V198.5ZM214.5 192.5H218.5V188.5H214.5V192.5ZM208.5 192.5H204.5V196.5H208.5V192.5ZM208.5 156.5V152.5H204.5V156.5H208.5ZM238.5 156.5V160.5H242.5V156.5H238.5ZM238.5 138.5H242.5V134.5H238.5V138.5ZM208.5 138.5H204.5V142.5H208.5V138.5ZM274.5 126.5V122.5H270.5V126.5H274.5ZM286.5 126.5H290.5V122.5H286.5V126.5ZM286.5 204.5V208.5H290.5V204.5H286.5ZM274.5 204.5H270.5V208.5H274.5V204.5ZM208.5 132.5V136.5H250.5V132.5V128.5H208.5V132.5ZM250.5 132.5H246.5V162.5H250.5H254.5V132.5H250.5ZM250.5 162.5V158.5H220.5V162.5V166.5H250.5V162.5ZM220.5 162.5H216.5V192.5H220.5H224.5V162.5H220.5ZM220.5 192.5V196.5H238.5V192.5V188.5H220.5V192.5ZM238.5 192.5H242.5V186.5H238.5H234.5V192.5H238.5ZM238.5 186.5V190.5H250.5V186.5V182.5H238.5V186.5ZM250.5 186.5H246.5V192.5H250.5H254.5V186.5H250.5ZM250.5 192.5V188.5H244.5V192.5V196.5H250.5V192.5ZM244.5 192.5H240.5V198.5H244.5H248.5V192.5H244.5ZM244.5 198.5V194.5H214.5V198.5V202.5H244.5V198.5ZM214.5 198.5H218.5V192.5H214.5H210.5V198.5H214.5ZM214.5 192.5V188.5H208.5V192.5V196.5H214.5V192.5ZM208.5 192.5H212.5V156.5H208.5H204.5V192.5H208.5ZM208.5 156.5V160.5H238.5V156.5V152.5H208.5V156.5ZM238.5 156.5H242.5V138.5H238.5H234.5V156.5H238.5ZM238.5 138.5V134.5H208.5V138.5V142.5H238.5V138.5ZM208.5 138.5H212.5V132.5H208.5H204.5V138.5H208.5ZM274.5 126.5V130.5H286.5V126.5V122.5H274.5V126.5ZM286.5 126.5H282.5V204.5H286.5H290.5V126.5H286.5ZM286.5 204.5V200.5H274.5V204.5V208.5H286.5V204.5ZM274.5 204.5H278.5V126.5H274.5H270.5V204.5H274.5Z" fill="white" mask="url(#path-9-outside-5_6_14)"/>
<mask id="path-11-outside-6_6_14" maskUnits="userSpaceOnUse" x="98.5" y="238.5" width="112" height="38" fill="black">
<rect fill="white" x="98.5" y="238.5" width="112" height="38"/>
<path d="M102.75 245H118.5V247.25H107.25V254H118.5V256.25H107.25V267.5H114V265.25H118.5V267.5H116.25V269.75H105V267.5H102.75V245ZM118.5 256.25H123V242.75H127.5V272H123V258.5H118.5V256.25ZM129.75 242.75H134.25V272H129.75V242.75ZM141 256.25H147.75V254H150V251.75H152.25V245H156.75V251.75H159V254H161.25V256.25H168V258.5H159V256.25H156.75V254H152.25V256.25H150V258.5H141V256.25ZM138.75 267.5H170.25V269.75H138.75V267.5ZM177 245H204V247.25H181.5V251.75H201.75V254H181.5V258.5H204V260.75H179.25V258.5H177V245ZM174.75 267.5H206.25V269.75H174.75V267.5Z"/>
</mask>
<path d="M102.75 245H118.5V247.25H107.25V254H118.5V256.25H107.25V267.5H114V265.25H118.5V267.5H116.25V269.75H105V267.5H102.75V245ZM118.5 256.25H123V242.75H127.5V272H123V258.5H118.5V256.25ZM129.75 242.75H134.25V272H129.75V242.75ZM141 256.25H147.75V254H150V251.75H152.25V245H156.75V251.75H159V254H161.25V256.25H168V258.5H159V256.25H156.75V254H152.25V256.25H150V258.5H141V256.25ZM138.75 267.5H170.25V269.75H138.75V267.5ZM177 245H204V247.25H181.5V251.75H201.75V254H181.5V258.5H204V260.75H179.25V258.5H177V245ZM174.75 267.5H206.25V269.75H174.75V267.5Z" fill="#A8A8A8"/>
<path d="M102.75 245V241H98.75V245H102.75ZM118.5 245H122.5V241H118.5V245ZM118.5 247.25V251.25H122.5V247.25H118.5ZM107.25 247.25V243.25H103.25V247.25H107.25ZM107.25 254H103.25V258H107.25V254ZM118.5 254H122.5V250H118.5V254ZM118.5 256.25V260.25H122.5V256.25H118.5ZM107.25 256.25V252.25H103.25V256.25H107.25ZM107.25 267.5H103.25V271.5H107.25V267.5ZM114 267.5V271.5H118V267.5H114ZM114 265.25V261.25H110V265.25H114ZM118.5 265.25H122.5V261.25H118.5V265.25ZM118.5 267.5V271.5H122.5V267.5H118.5ZM116.25 267.5V263.5H112.25V267.5H116.25ZM116.25 269.75V273.75H120.25V269.75H116.25ZM105 269.75H101V273.75H105V269.75ZM105 267.5H109V263.5H105V267.5ZM102.75 267.5H98.75V271.5H102.75V267.5ZM118.5 256.25V252.25H114.5V256.25H118.5ZM123 256.25V260.25H127V256.25H123ZM123 242.75V238.75H119V242.75H123ZM127.5 242.75H131.5V238.75H127.5V242.75ZM127.5 272V276H131.5V272H127.5ZM123 272H119V276H123V272ZM123 258.5H127V254.5H123V258.5ZM118.5 258.5H114.5V262.5H118.5V258.5ZM129.75 242.75V238.75H125.75V242.75H129.75ZM134.25 242.75H138.25V238.75H134.25V242.75ZM134.25 272V276H138.25V272H134.25ZM129.75 272H125.75V276H129.75V272ZM102.75 245V249H118.5V245V241H102.75V245ZM118.5 245H114.5V247.25H118.5H122.5V245H118.5ZM118.5 247.25V243.25H107.25V247.25V251.25H118.5V247.25ZM107.25 247.25H103.25V254H107.25H111.25V247.25H107.25ZM107.25 254V258H118.5V254V250H107.25V254ZM118.5 254H114.5V256.25H118.5H122.5V254H118.5ZM118.5 256.25V252.25H107.25V256.25V260.25H118.5V256.25ZM107.25 256.25H103.25V267.5H107.25H111.25V256.25H107.25ZM107.25 267.5V271.5H114V267.5V263.5H107.25V267.5ZM114 267.5H118V265.25H114H110V267.5H114ZM114 265.25V269.25H118.5V265.25V261.25H114V265.25ZM118.5 265.25H114.5V267.5H118.5H122.5V265.25H118.5ZM118.5 267.5V263.5H116.25V267.5V271.5H118.5V267.5ZM116.25 267.5H112.25V269.75H116.25H120.25V267.5H116.25ZM116.25 269.75V265.75H105V269.75V273.75H116.25V269.75ZM105 269.75H109V267.5H105H101V269.75H105ZM105 267.5V263.5H102.75V267.5V271.5H105V267.5ZM102.75 267.5H106.75V245H102.75H98.75V267.5H102.75ZM118.5 256.25V260.25H123V256.25V252.25H118.5V256.25ZM123 256.25H127V242.75H123H119V256.25H123ZM123 242.75V246.75H127.5V242.75V238.75H123V242.75ZM127.5 242.75H123.5V272H127.5H131.5V242.75H127.5ZM127.5 272V268H123V272V276H127.5V272ZM123 272H127V258.5H123H119V272H123ZM123 258.5V254.5H118.5V258.5V262.5H123V258.5ZM118.5 258.5H122.5V256.25H118.5H114.5V258.5H118.5ZM129.75 242.75V246.75H134.25V242.75V238.75H129.75V242.75ZM134.25 242.75H130.25V272H134.25H138.25V242.75H134.25ZM134.25 272V268H129.75V272V276H134.25V272ZM129.75 272H133.75V242.75H129.75H125.75V272H129.75ZM141 256.25V252.25H137V256.25H141ZM147.75 256.25V260.25H151.75V256.25H147.75ZM147.75 254V250H143.75V254H147.75ZM150 254V258H154V254H150ZM150 251.75V247.75H146V251.75H150ZM152.25 251.75V255.75H156.25V251.75H152.25ZM152.25 245V241H148.25V245H152.25ZM156.75 245H160.75V241H156.75V245ZM156.75 251.75H152.75V255.75H156.75V251.75ZM159 251.75H163V247.75H159V251.75ZM159 254H155V258H159V254ZM161.25 254H165.25V250H161.25V254ZM161.25 256.25H157.25V260.25H161.25V256.25ZM168 256.25H172V252.25H168V256.25ZM168 258.5V262.5H172V258.5H168ZM159 258.5H155V262.5H159V258.5ZM159 256.25H163V252.25H159V256.25ZM156.75 256.25H152.75V260.25H156.75V256.25ZM156.75 254H160.75V250H156.75V254ZM152.25 254V250H148.25V254H152.25ZM152.25 256.25V260.25H156.25V256.25H152.25ZM150 256.25V252.25H146V256.25H150ZM150 258.5V262.5H154V258.5H150ZM141 258.5H137V262.5H141V258.5ZM138.75 267.5V263.5H134.75V267.5H138.75ZM170.25 267.5H174.25V263.5H170.25V267.5ZM170.25 269.75V273.75H174.25V269.75H170.25ZM138.75 269.75H134.75V273.75H138.75V269.75ZM141 256.25V260.25H147.75V256.25V252.25H141V256.25ZM147.75 256.25H151.75V254H147.75H143.75V256.25H147.75ZM147.75 254V258H150V254V250H147.75V254ZM150 254H154V251.75H150H146V254H150ZM150 251.75V255.75H152.25V251.75V247.75H150V251.75ZM152.25 251.75H156.25V245H152.25H148.25V251.75H152.25ZM152.25 245V249H156.75V245V241H152.25V245ZM156.75 245H152.75V251.75H156.75H160.75V245H156.75ZM156.75 251.75V255.75H159V251.75V247.75H156.75V251.75ZM159 251.75H155V254H159H163V251.75H159ZM159 254V258H161.25V254V250H159V254ZM161.25 254H157.25V256.25H161.25H165.25V254H161.25ZM161.25 256.25V260.25H168V256.25V252.25H161.25V256.25ZM168 256.25H164V258.5H168H172V256.25H168ZM168 258.5V254.5H159V258.5V262.5H168V258.5ZM159 258.5H163V256.25H159H155V258.5H159ZM159 256.25V252.25H156.75V256.25V260.25H159V256.25ZM156.75 256.25H160.75V254H156.75H152.75V256.25H156.75ZM156.75 254V250H152.25V254V258H156.75V254ZM152.25 254H148.25V256.25H152.25H156.25V254H152.25ZM152.25 256.25V252.25H150V256.25V260.25H152.25V256.25ZM150 256.25H146V258.5H150H154V256.25H150ZM150 258.5V254.5H141V258.5V262.5H150V258.5ZM141 258.5H145V256.25H141H137V258.5H141ZM138.75 267.5V271.5H170.25V267.5V263.5H138.75V267.5ZM170.25 267.5H166.25V269.75H170.25H174.25V267.5H170.25ZM170.25 269.75V265.75H138.75V269.75V273.75H170.25V269.75ZM138.75 269.75H142.75V267.5H138.75H134.75V269.75H138.75ZM177 245V241H173V245H177ZM204 245H208V241H204V245ZM204 247.25V251.25H208V247.25H204ZM181.5 247.25V243.25H177.5V247.25H181.5ZM181.5 251.75H177.5V255.75H181.5V251.75ZM201.75 251.75H205.75V247.75H201.75V251.75ZM201.75 254V258H205.75V254H201.75ZM181.5 254V250H177.5V254H181.5ZM181.5 258.5H177.5V262.5H181.5V258.5ZM204 258.5H208V254.5H204V258.5ZM204 260.75V264.75H208V260.75H204ZM179.25 260.75H175.25V264.75H179.25V260.75ZM179.25 258.5H183.25V254.5H179.25V258.5ZM177 258.5H173V262.5H177V258.5ZM174.75 267.5V263.5H170.75V267.5H174.75ZM206.25 267.5H210.25V263.5H206.25V267.5ZM206.25 269.75V273.75H210.25V269.75H206.25ZM174.75 269.75H170.75V273.75H174.75V269.75ZM177 245V249H204V245V241H177V245ZM204 245H200V247.25H204H208V245H204ZM204 247.25V243.25H181.5V247.25V251.25H204V247.25ZM181.5 247.25H177.5V251.75H181.5H185.5V247.25H181.5ZM181.5 251.75V255.75H201.75V251.75V247.75H181.5V251.75ZM201.75 251.75H197.75V254H201.75H205.75V251.75H201.75ZM201.75 254V250H181.5V254V258H201.75V254ZM181.5 254H177.5V258.5H181.5H185.5V254H181.5ZM181.5 258.5V262.5H204V258.5V254.5H181.5V258.5ZM204 258.5H200V260.75H204H208V258.5H204ZM204 260.75V256.75H179.25V260.75V264.75H204V260.75ZM179.25 260.75H183.25V258.5H179.25H175.25V260.75H179.25ZM179.25 258.5V254.5H177V258.5V262.5H179.25V258.5ZM177 258.5H181V245H177H173V258.5H177ZM174.75 267.5V271.5H206.25V267.5V263.5H174.75V267.5ZM206.25 267.5H202.25V269.75H206.25H210.25V267.5H206.25ZM206.25 269.75V265.75H174.75V269.75V273.75H206.25V269.75ZM174.75 269.75H178.75V267.5H174.75H170.75V269.75H174.75Z" fill="white" mask="url(#path-11-outside-6_6_14)"/>
</svg>
